<?xml version="1.0" encoding="UTF-8"?>
<svg xmlns="http://www.w3.org/2000/svg" xmlns:xlink="http://www.w3.org/1999/xlink" viewBox="0 0 2807 8425.59">
  <defs>
    <style>
      .cls-1 {
        clip-path: url(#clippath-2);
      }

      .cls-1, .cls-2, .cls-3 {
        fill: none;
      }

      .cls-4 {
        fill: #fff;
      }

      .cls-5 {
        fill: #f5c471;
      }

      .cls-5, .cls-6, .cls-7, .cls-8, .cls-9, .cls-10, .cls-11, .cls-12, .cls-13, .cls-14, .cls-15, .cls-16 {
        mix-blend-mode: multiply;
      }

      .cls-5, .cls-6, .cls-7, .cls-8, .cls-9, .cls-10, .cls-11, .cls-12, .cls-13, .cls-14, .cls-16 {
        opacity: .1;
      }

      .cls-6 {
        fill: #f5b64a;
      }

      .cls-7 {
        fill: #f59e0b;
      }

      .cls-8 {
        fill: #f5cd89;
      }

      .cls-9 {
        fill: #f5d298;
      }

      .cls-2 {
        isolation: isolate;
      }

      .cls-10 {
        fill: #f5bb58;
      }

      .cls-11 {
        fill: #f5d7a7;
      }

      .cls-12 {
        fill: #f5a827;
      }

      .cls-13 {
        fill: #f5dfba;
      }

      .cls-14 {
        fill: #f5ad33;
      }

      .cls-3 {
        clip-path: url(#clippath-1);
      }

      .cls-15 {
        fill: #8c001a;
        opacity: .07;
      }

      .cls-16 {
        fill: #f5ddb3;
      }
    </style>
    <clipPath id="clippath-1">
      <rect class="cls-4" x="346.87" y="-293.05" width="2112.5" height="3689.52" transform="translate(-383 2640.88) rotate(-79.25)"/>
    </clipPath>
    <clipPath id="clippath-2">
      <rect class="cls-4" x="603.9" y="2510.4" width="1643.06" height="4155.58" transform="translate(-3343.69 5170.32) rotate(-79.7)"/>
    </clipPath>
  </defs>
  <g class="cls-2">
    <g id="Layer_1" data-name="Layer 1">
      <g>
        <rect class="cls-4" x="346.87" y="-293.05" width="2112.5" height="3689.52" transform="translate(-383 2640.88) rotate(-79.25)"/>
        <g class="cls-3">
          <path class="cls-13" d="m-284.03-136.83l-.45,3.99c-42.72-6.93-82.91.12-113.14,19.86-40.99,26.75-55.77,71.34-36.79,110.97,34,70.99,131.1,125.99,224.99,179.18C-115.09,230.6-17.54,285.86,17.58,357.73c32.42,66.35,1.29,127.7-28.83,187.03-12.98,25.57-26.4,52.02-34.59,78.54-44.49,144.16,68.96,260.3,189.97,320.92,121.63,60.93,263.11,76.95,369.2,41.79,64.38-21.33,106.19-59.95,146.63-97.3,13.71-12.66,27.89-25.75,42.74-37.99,35.52-29.26,132.17-94.73,261.97-70.78,78.26,14.44,140.03,56.6,199.48,97.31,64.36,44.08,125.16,85.69,206.15,96.19,100.69,13.03,164.84-24.5,232.76-64.23,45.76-26.77,93.07-54.44,152.45-64.8,144.77-25.25,318.67,49.29,426.79,134.37,44.94,35.36,84.43,73.82,122.62,111.01,52.98,51.6,107.76,104.95,177.41,150.14,169.11,109.71,402.89,159.6,610.09,130.22,207.2-29.39,342.41-131.62,352.86-266.8l6.63.99c-10.57,136.73-147.31,240.13-356.87,269.86-209.56,29.73-446-20.75-617.05-131.72-70.25-45.57-125.27-99.15-178.47-150.97-38.07-37.08-77.45-75.43-122.12-110.57-106.46-83.77-277.31-157.24-419.01-132.52-58.14,10.14-105,37.55-150.32,64.06-65.92,38.56-134.09,78.44-237.87,65.01-83.52-10.75-148.12-55.03-210.56-97.8-58.66-40.17-119.4-81.92-195.67-95.8-126.15-23.28-220.85,40.99-255.71,69.7-14.77,12.17-28.91,25.23-42.59,37.86-40.78,37.66-82.94,76.6-148.41,98.29-108.34,35.9-252.66,19.61-376.66-42.51-122.86-61.55-238.08-179.37-193-325.45,8.25-26.73,21.72-53.27,34.75-78.93,29.83-58.78,60.68-119.55,28.87-184.66-34.46-70.52-131.11-125.28-224.58-178.23C-308.11,126.28-406.1,70.77-440.76-1.58c-19.6-40.92-4.36-86.96,37.92-114.55,31.64-20.65,73.83-28,118.8-20.71Z"/>
          <path class="cls-16" d="m-276.13-152.97l.25,4.08c-35.89-3.49-71.14,5.28-99.26,24.7-43.93,30.34-62.43,79.37-46.03,122,27.05,70.31,114.68,122.47,207.46,177.69C-126.29,227.53-35.91,281.33-2.72,351.3c31.07,65.94,5.27,126.75-19.67,185.56-10.68,25.17-21.72,51.2-27.9,76.97-27.48,114.68,44.01,227.56,191.23,301.95,123.04,62.17,268.75,80.91,380.28,48.91,68.79-19.74,112.97-55.11,155.69-89.31,11.7-9.36,23.79-19.04,36.07-28.12,41.97-31.25,130.66-79.98,252.35-55.51,74.75,15.04,134.2,54.97,191.7,93.59,64.08,43.04,124.61,83.69,204.71,93.39,102.39,12.39,171.65-26.72,244.97-68.12,52.6-29.7,106.99-60.42,175.11-70.73,151.19-22.89,324.7,52.63,429.59,137.63,46.83,38.2,85.58,79.66,123.05,119.75,47.89,51.25,97.41,104.24,163.35,149.36,158.86,108.72,384.09,161.1,587.8,136.69,205.97-24.68,344.19-121.15,360.72-251.78l6.62,1.11c-16.73,132.17-156.55,229.78-364.91,254.74-206.1,24.69-433.99-28.31-594.74-138.32-66.56-45.55-116.32-98.79-164.43-150.28-37.34-39.95-75.95-81.27-122.45-119.19-99.93-80.98-274.59-157.99-421.91-135.68-66.81,10.11-120.72,40.56-172.86,70-71.07,40.13-144.56,81.63-249.93,68.88-82.64-9.98-146.96-53.19-209.16-94.96-56.74-38.11-115.42-77.52-188.12-92.15-118.18-23.66-204.95,23.98-246.06,54.59-12.22,9.03-24.29,18.69-35.95,28.03-43.09,34.5-87.64,70.17-157.54,90.22-113.74,32.63-262.22,13.58-387.51-49.72C-12.09,843.25-84.71,728.74-56.86,612.47c6.22-25.98,17.3-52.1,28.02-77.36,24.73-58.3,50.31-118.58,19.77-183.38-32.58-68.67-122.12-121.96-208.71-173.5C-307.37,124.9-400.01,69.76-427.61-1.98c-16.86-43.81,2.1-94.15,47.17-125.28,29.34-20.27,66.39-29.4,104.31-25.71Z"/>
          <path class="cls-11" d="m-268.31-169.08l1.13,4.13c-30.15-.47-61,10.04-86.85,29.6-45.48,34.4-67.14,87.86-53.9,133.01,20.35,69.37,102.59,121.12,189.67,175.92,80.58,50.71,163.92,103.16,195.25,171.29,29.63,65.33,9.3,125.4-10.36,183.5-8.83,26.1-17.18,50.76-21.37,75.99-17.76,106.94,53.96,212.67,191.86,282.83,124.38,63.28,274.59,84.82,392.01,56.18,74.58-18.18,121.51-50.23,166.89-81.23,9.14-6.24,18.16-12.41,27.28-18.36,71.02-46.36,152.7-59.92,242.71-40.23,70.91,15.48,128.29,53.25,183.78,89.77,63.86,42.03,124.18,81.73,203.41,90.68,104.11,11.76,178.15-28.9,256.52-71.95,59.59-32.73,121.21-66.58,198.41-76.73,157.14-20.68,334.3,58.54,432.4,140.89,48.78,40.95,86.35,85.38,122.69,128.35,43.06,50.93,87.6,103.6,150.07,148.72,151.25,109.25,362.82,162.65,565.96,142.85,204.37-19.93,345.43-110.53,368.15-236.45l6.6,1.23c-22.99,127.45-165.73,219.14-372.52,239.3-205.6,20.04-419.75-34.01-572.86-144.61-63.12-45.59-107.88-98.53-151.17-149.72-36.19-42.8-73.61-87.05-121.99-127.67-96.6-81.09-270.74-159.12-424.81-138.86-75.83,9.98-136.94,43.54-196.04,76-79.38,43.6-154.35,84.78-261.35,72.69-81.78-9.25-145.88-51.43-207.88-92.23-54.78-36.05-111.44-73.34-180.45-88.41-87.5-19.11-167.04-5.81-236.45,39.5-9.09,5.94-18.09,12.08-27.21,18.31-45.76,31.26-93.08,63.58-168.77,82.03-119.59,29.16-272.47,7.29-398.97-57.08C-6.49,818.93-79.35,711.63-61.34,603.17c4.22-25.43,12.99-51.33,21.46-76.37C-20.38,469.16-.21,409.56-29.38,345.26c-30.76-66.88-113.3-118.83-193.13-169.06C-306.66,123.24-393.67,68.48-414.45-2.38c-13.55-46.18,8.55-100.81,54.98-135.94,27.26-20.63,58.79-31.26,91.17-30.76Z"/>
          <path class="cls-9" d="m-260.57-185.15l2.17,4.1c-77.71,7.06-151.59,103.84-136.29,178.55,13.95,68.16,90.59,119.48,171.72,173.81,73.95,49.53,150.43,100.74,179.67,167.14,28.34,64.37,13.48,123.44-.89,180.57-6.59,26.17-12.81,50.9-15,75.87-8.82,100.68,61.09,196.76,191.8,263.6,123.71,63.26,282.46,88.22,404.43,63.59,81.24-16.41,133.04-45.78,178.75-71.7,6.01-3.41,11.95-6.78,17.86-10.06,68.84-38.28,142.89-46.23,233.03-24.94,67.03,15.81,122.28,51.41,175.71,85.84,63.71,41.05,123.87,79.85,202.27,88.07,105.87,11.15,184.4-31.04,267.54-75.71,66.7-35.84,135.67-72.9,222.25-82.78,163.18-18.65,339.99,61.65,435.22,144.15,50.11,43.41,85.9,90.41,120.51,135.86,40.61,53.33,78.97,103.69,138.61,149.19,141.63,108.05,345.21,163.64,544.59,148.71,202.39-15.16,346.13-99.77,375.12-220.82l6.57,1.36c-29.35,122.56-174.83,208.23-379.67,223.57-201.86,15.12-408-41.18-551.42-150.6-60.3-46-100.67-99.01-139.71-150.27-34.46-45.24-70.08-92.02-119.74-135.04-93.76-81.23-267.6-160.32-427.7-142.03-85.14,9.73-153.58,46.5-219.76,82.06-84.12,45.2-163.57,87.89-272.24,76.44-80.95-8.52-144.9-49.73-206.75-89.59-52.77-34-107.33-69.16-172.62-84.56-87.65-20.69-159.74-12.92-226.87,24.41-5.9,3.28-11.82,6.64-17.82,10.04-46.08,26.13-98.31,55.74-180.61,72.37-124.05,25.06-285.42-.29-411.11-64.56C-3.75,793.58-74.77,696.04-65.82,593.88c2.2-25.16,8.45-49.97,15.06-76.24,14.27-56.72,29.03-115.37,1.07-178.84-28.72-65.21-104.47-115.94-177.72-165C-309.49,118.82-387.01,66.9-401.28-2.78c-15.93-77.8,59.03-174.95,140.71-182.36Z"/>
          <path class="cls-8" d="m-252.9-201.14l3.34,3.91c-64.46,15.13-141.47,114.09-131.92,194.56,7.94,66.89,78.8,117.85,153.82,171.81,67.2,48.33,136.69,98.31,164.06,162.89,26.69,63,17.39,120.71,8.39,176.53-4.3,26.63-8.35,51.79-8.45,76.85-.36,94.23,67.48,180.99,191.02,244.31,124.79,63.96,288.71,91.86,417.6,71.06,89.56-14.45,144.1-39.1,192.22-60.85l6.86-3.1c43.83-19.76,108.8-38.71,223.3-9.63,63.11,16.03,116.14,49.46,167.43,81.79,63.62,40.11,123.72,77.99,201.32,85.59,107.65,10.54,190.45-33.17,278.1-79.45,73.9-39.02,150.32-79.36,246.53-88.87,161.43-15.96,342.55,62.08,438.04,147.41,51.18,45.74,84.84,95.1,117.39,142.84,36.51,53.55,70.98,104.12,128.1,150.17,132.39,106.77,328.17,164.45,523.7,154.3,200.04-10.38,346.26-88.91,381.61-204.94l6.54,1.51c-35.8,117.51-183.84,197.04-386.34,207.55-198.03,10.27-396.33-48.16-530.46-156.32-57.78-46.6-94.08-99.83-129.18-151.32-32.39-47.5-65.87-96.62-116.55-141.91-94.02-84.01-272.11-160.87-430.58-145.2-94.72,9.36-170.58,49.42-243.94,88.15-88.61,46.78-172.31,90.98-282.68,80.17-80.12-7.83-144.03-48.12-205.82-87.07-50.67-31.94-103.07-64.98-164.59-80.6-111.46-28.32-174.7-9.87-217.35,9.35l-6.86,3.1c-48.49,21.92-103.45,46.76-193.98,61.36-130.89,21.12-297.32-7.18-423.97-72.1C-1.73,768.36-70.65,680.25-70.29,584.59c.1-25.25,4.17-50.49,8.48-77.23,8.94-55.46,18.19-112.8-8.19-175.05-26.89-63.46-95.73-112.97-162.3-160.85C-308.24,116.85-379.98,65.26-388.1-3.18c-9.71-81.76,69.21-182.48,135.2-197.97Z"/>
          <path class="cls-5" d="m-245.22-217.04l4.49,3.53c-52.46,23.11-130.47,126.68-127.54,210.66,2.29,65.59,67.25,116.28,136.03,169.94,60.4,47.12,122.85,95.84,148.35,158.52,24.81,60.98,20.97,116.8,17.26,170.78-1.9,27.7-3.7,53.86-1.49,79.52,7.42,86.33,74.69,166.24,189.41,224.99,125.66,64.36,295.08,95.21,431.61,78.58,92.7-11.3,150.45-28.99,201.65-46.16,44.85-15.04,101.75-24.76,213.49,5.69,59.14,16.12,109.86,47.37,158.92,77.6,63.63,39.21,123.74,76.27,200.62,83.24,109.46,9.94,196.31-35.28,288.26-83.16,81.18-42.27,165.12-85.97,271.2-94.99,166.69-14.17,347.96,65.07,440.86,150.66,52.06,47.97,83.32,99.56,113.55,149.45,32.65,53.89,63.5,104.79,118.29,151.54,123.56,105.42,311.71,165.1,503.3,159.65,197.32-5.61,345.84-77.96,387.62-188.82l6.48,1.66c-42.33,112.31-192.73,185.61-392.53,191.29-194.11,5.52-384.76-54.96-509.97-161.8-55.48-47.33-87.95-100.93-119.36-152.76-30.07-49.62-61.16-100.93-112.66-148.38-91.46-84.27-269.72-162.3-433.46-148.38-104.53,8.88-187.89,52.29-268.51,94.26-92.89,48.36-180.64,94.05-292.75,83.87-79.43-7.2-143.32-46.59-205.12-84.68-48.49-29.88-98.63-60.78-156.33-76.51-109.04-29.7-164.37-20.3-207.92-5.7-51.55,17.28-109.71,35.11-203.17,46.49-138.46,16.87-310.25-14.4-437.65-79.66-116.56-59.7-184.91-140.88-192.45-228.56-2.22-25.85-.42-52.1,1.49-79.9,3.69-53.69,7.5-109.2-17.05-169.56-25.08-61.64-86.95-109.92-146.79-156.6C-306.77,114.91-372.57,63.57-374.91-3.56c-2.97-85,76.36-189.98,129.69-213.48Z"/>
          <path class="cls-10" d="m-237.44-232.85l5.45,2.97c-39.56,30.02-118.85,137.29-123.09,226.85-3.04,64.36,55.95,114.88,118.41,168.36,53.52,45.83,108.86,93.22,132.48,153.85,22.58,57.95,23.91,111.06,25.2,162.42.75,29.71,1.45,57.78,6.38,84.79,18.35,100.61,111.75,167.4,186.87,205.72,126.22,64.39,301.51,98.17,446.57,86.07,100.7-8.41,162.09-19.58,204.33-28.37,47.36-9.86,97.92-9.78,203.54,21.02,55.12,16.07,103.41,45.15,150.12,73.27,63.74,38.39,123.94,74.65,200.2,81.03,111.28,9.33,202.02-37.39,298.09-86.85,88.52-45.57,180.05-92.7,296.2-101.11,151.61-10.98,338.2,53.75,443.68,153.91,52.79,50.12,81.45,103.82,109.18,155.75,29,54.32,56.39,105.64,109.03,153.21,115.09,104.03,295.79,165.64,483.39,164.8,194.24-.87,344.88-66.96,393.14-172.49l6.42,1.81c-48.91,106.95-201.5,173.94-398.23,174.82-190.11.84-373.28-61.61-489.96-167.07-53.31-48.18-82.16-102.23-110.06-154.5-27.56-51.63-56.06-105.01-108.25-154.57-103.85-98.61-287.36-162.35-436.34-151.56-114.54,8.3-205.48,55.11-293.42,100.39-96.99,49.94-188.61,97.11-302.48,87.56-78.76-6.63-142.79-45.16-204.71-82.44-46.19-27.81-93.95-56.57-147.8-72.27-103.47-30.18-152.7-30.31-198.6-20.76-42.47,8.85-104.19,20.08-205.38,28.52-146.89,12.25-324.41-21.97-452.25-87.17-76.34-38.94-171.25-106.81-189.89-209.05-4.96-27.22-5.67-55.38-6.42-85.19-1.28-51.13-2.61-104.01-25.01-161.48-23.26-59.69-78.1-106.66-131.15-152.08-63.28-54.19-123.05-105.37-119.94-171.25,3.96-83.93,77.42-193.35,124.27-228.9Z"/>
          <path class="cls-6" d="m-229.51-248.61l6.11,2.32c-10.75,14.16-105.43,141.27-118.48,243.07-8.11,63.29,44.87,113.81,100.97,167.29,46.56,44.4,94.72,90.31,116.44,148.68,19.82,53.26,25.63,102.32,31.24,149.76,3.94,33.31,7.67,64.77,16.13,94.36,20.53,71.77,83.88,136.28,183.22,186.54,128.26,64.9,305.55,100.72,462.66,93.49,97.02-4.47,163.86-7.62,207.19-10.56,41.8-2.84,83.19,1.99,193.41,36.31,51.03,15.89,96.74,42.77,140.95,68.77,63.99,37.63,124.43,73.17,200.15,79,113.12,8.71,207.59-39.5,307.61-90.54,95.91-48.94,195.08-99.55,321.5-107.24,155.92-9.49,343.71,56.6,446.51,157.16,53.39,52.22,79.31,107.94,104.38,161.82,25.52,54.83,49.61,106.63,100.18,155.12,107,102.61,280.45,166.07,463.98,169.76,190.83,3.84,343.41-55.93,398.19-156l6.33,1.98c-55.54,101.44-210.13,162.04-403.45,158.15-186.05-3.74-361.91-68.1-470.42-172.15-51.23-49.13-76.62-103.69-101.17-156.45-24.92-53.55-50.68-108.93-103.43-160.53-101.21-98.99-285.92-164.07-439.22-154.74-124.75,7.6-223.31,57.89-318.62,106.52-100.93,51.5-196.27,100.15-311.91,91.24-78.25-6.03-142.5-43.82-204.66-80.37-43.75-25.72-88.98-52.33-138.9-67.87-108.55-33.8-148.98-38.58-189.48-35.83-43.43,2.95-110.32,6.1-207.4,10.57-158.85,7.32-338.16-28.94-467.95-94.6-100.95-51.08-165.34-116.64-186.21-189.6-8.52-29.8-12.26-61.37-16.22-94.79-5.6-47.28-11.39-96.17-31.08-149.1-21.41-57.53-69.15-103.06-115.33-147.08-56.84-54.2-110.53-105.39-102.23-170.15,13.13-102.43,108.19-230.07,118.99-244.28Z"/>
          <path class="cls-14" d="m-221.43-264.38l6.47,1.69c-6.31,16.08-18.39,39.2-32.37,65.96-28.83,55.19-68.32,130.77-81.36,193.33-13.03,62.48,33.96,113.25,83.7,167.01,39.56,42.75,80.47,86.96,100.23,142.73,16.18,45.66,24.99,88.23,33.51,129.38,8.24,39.81,16.03,77.41,29.64,111.63,68.12,171.25,388.22,270.88,658.34,268.27,101.09-.98,165.47,3.41,210.26,7.33,38.16,3.35,71.31,14.37,159.91,43.83l23.17,7.7c46.87,15.55,89.82,40.21,131.35,64.06,64.37,36.96,125.18,71.87,200.53,77.17,114.95,8.08,213.03-41.61,316.87-94.22,103.35-52.36,210.22-106.51,347.07-113.38,160.11-8.04,349.08,59.42,449.34,160.41,53.9,54.28,76.97,111.95,99.28,167.72,22.16,55.4,43.1,107.72,91.65,157.2,99.27,101.17,265.65,166.44,445.04,174.58,184.27,8.37,342.36-46.33,402.77-139.36l6.23,2.15c-61.25,94.34-221.48,149.82-408.19,141.33-181.93-8.26-350.65-74.47-451.35-177.09-49.2-50.14-71.26-105.27-92.59-158.58-22.17-55.41-45.09-112.7-98.31-166.31-98.7-99.42-284.63-165.84-442.09-157.93-135.13,6.79-241.36,60.61-344.1,112.66-104.73,53.06-203.65,103.18-321.08,94.92-77.85-5.45-142.5-42.6-205.03-78.5-41.13-23.62-83.66-48.03-129.56-63.26l-23.18-7.7c-87.71-29.16-120.52-40.06-157.38-43.31-44.55-3.9-108.59-8.26-209.23-7.29-134.45,1.3-280.37-22.74-400.33-65.95-97.87-35.25-223.42-99.65-265.82-206.23-13.71-34.47-21.52-72.19-29.79-112.13-8.5-41.06-17.3-83.53-33.41-129-19.5-55.05-60.09-98.92-99.35-141.34-50.4-54.46-98.01-105.91-84.68-169.8,13.11-62.9,52.69-138.65,81.59-193.97,13.95-26.69,25.99-49.75,32.26-65.71Z"/>
          <path class="cls-12" d="m-206.63-279.06c-4.06,30.56-26.28,78.88-49.82,130.03-22.55,49.02-45.87,99.71-59.07,145.43-17.93,62.1,21.22,111.14,66.56,167.93,32.54,40.76,66.19,82.91,83.89,135.58,10.88,32.36,19.59,63.29,28.01,93.19,14.75,52.39,28.69,101.87,50.9,144.7C.25,704.38,322.15,787.55,584.67,794.34c85.72,2.21,157.53,10.76,213.44,25.37,18.23,4.77,34.57,11.75,57.19,21.41,25.2,10.76,59.72,25.5,115.43,45.18,42.6,15.04,82.55,37.44,121.18,59.1,62.1,34.81,126.31,70.8,201.47,75.59,116.79,7.44,218.35-43.73,325.87-97.89,110.84-55.84,225.45-113.58,372.88-119.52,164.17-6.62,354.34,62.21,452.18,163.65,54.32,56.32,74.45,115.88,93.92,173.48,18.92,56,36.8,108.88,83.35,159.41,91.88,99.74,251.34,166.77,426.58,179.3,180.32,12.9,340.03-35.23,406.9-122.62l6.1,2.33c-67.82,88.64-229.72,137.46-412.47,124.39-177.72-12.7-339.49-80.71-432.72-181.91-47.18-51.22-66.02-106.94-84.24-160.83-19.34-57.21-39.34-116.37-92.96-171.97-96.31-99.86-283.44-167.61-444.96-161.11-145.66,5.87-259.62,63.28-369.83,118.8-108.4,54.61-210.78,106.19-330,98.6-77.65-4.95-142.88-41.51-205.97-76.88-38.29-21.46-77.88-43.66-119.66-58.41-56.03-19.78-90.72-34.6-116.05-45.42-23.04-9.84-38.25-16.34-55.71-20.9-54.32-14.19-127.25-22.85-210.93-25.01-265.17-6.86-590.5-91.18-678.13-260.14-22.38-43.14-36.35-92.77-51.15-145.32-8.41-29.87-17.11-60.76-27.96-93.05-17.5-52.07-50.92-93.93-83.24-134.42-45.92-57.52-85.58-107.19-67.26-170.62,13.25-45.9,36.61-96.67,59.2-145.78,23.45-50.98,45.61-99.14,49.61-129.33l6.62,1.12Z"/>
          <path class="cls-7" d="m-198.37-295.39c2.79,46.01-30.28,120.45-62.26,192.44-14.85,33.42-30.2,67.97-41.72,99.15-23.04,62.35,10.56,112.58,49.47,170.74,24.39,36.46,52.03,77.78,67.52,126.54l4.99,15.76c26.85,84.83,50.05,158.08,89.65,219.01,127.75,196.54,555.32,237.08,683.33,244.83,121.59,7.35,187.87,30.44,216.56,43.54,11.5,5.25,21.61,11.55,33.32,18.85,24.28,15.13,57.53,35.86,128.92,62.65,38.19,14.33,74.85,34.4,110.3,53.81,62.89,34.43,127.91,70.04,203.14,74.33,118.62,6.77,223.54-45.86,334.63-101.57,118.37-59.36,240.77-120.75,398.94-125.66,168.12-5.21,359.48,64.97,455,166.9,54.69,58.35,71.82,119.77,88.39,179.16,15.1,54.12,30.71,110.09,75.24,161.71,84.83,98.32,237.55,167.07,408.57,183.92,178.82,17.62,336.15-22.92,410.58-105.79l5.95,2.52c-75.51,84.08-235.03,125.22-416.29,107.36-173.49-17.08-328.44-86.86-414.53-186.64-45.14-52.33-60.86-108.68-76.06-163.17-16.45-58.98-33.46-119.97-87.43-177.55-94.04-100.34-282.38-169.42-447.83-164.3-156.35,4.85-278.08,65.9-395.8,124.94-111.95,56.15-217.69,109.18-338.68,102.28-77.7-4.44-143.76-40.6-207.63-75.58-35.16-19.25-71.52-39.16-109.05-53.24-72.3-27.13-105.99-48.13-130.59-63.47-11.45-7.14-21.34-13.3-32.3-18.31-28.02-12.79-92.9-35.34-212.71-42.6-129.14-7.82-560.54-48.8-690.08-248.07-39.88-61.34-63.13-134.8-90.06-219.86l-4.99-15.76c-15.34-48.31-41.64-87.62-67.08-125.64-39.38-58.87-73.39-109.71-49.89-173.3,11.55-31.25,26.92-65.84,41.78-99.29,31.86-71.72,64.81-145.89,62.06-191.3l6.64.65Z"/>
          <path class="cls-7" d="m-190.13-311.66c13.69,65.14-35.2,170.13-78.34,262.76-7.17,15.41-14.19,30.46-20.71,44.91-28.73,63.61-.45,116,32.29,176.66,17.91,33.2,38.22,70.82,51.23,114.4,30.23,101.24,65.3,174.84,110.35,231.63C-.04,638.79,234.08,717.23,600.56,751.81c134.62,12.71,198.32,47.43,219.46,61.76,8.95,6.07,16.68,13.01,24.87,20.36,22.6,20.29,50.72,45.54,127.2,76.01,33.58,13.38,66.55,31.03,98.43,48.1,63.98,34.26,130.14,69.67,205.79,73.49,120.43,6.07,228.62-48,343.17-105.25,125.94-62.94,256.17-128.03,425.21-131.8,171.99-3.84,364.53,67.72,457.84,170.14,55.01,60.38,69.09,123.62,82.71,184.79,12.19,54.73,24.79,111.33,67.27,164.07,79.25,98.39,221.74,167.11,391,188.5,174.33,22.05,332.9-12.02,413.84-88.93l5.76,2.7c-82.12,78.04-242.93,112.63-419.67,90.27-171.72-21.73-316.33-91.45-396.77-191.32-43.06-53.46-55.75-110.44-68.02-165.54-13.52-60.73-27.51-123.53-81.77-183.08-91.86-100.82-281.4-171.26-450.7-167.48-167.17,3.73-296.72,68.47-421.99,131.09-115.39,57.67-224.39,112.14-347.14,105.95-78.11-3.93-145.3-39.91-210.28-74.71-31.65-16.95-64.38-34.47-97.45-47.65-77.95-31.06-106.63-56.81-129.67-77.5-8.36-7.51-15.58-13.99-24.12-19.78-20.53-13.92-82.56-47.67-214.7-60.13C231.6,721.05-4.59,641.65-101.16,519.9c-45.38-57.21-80.66-131.21-111.02-232.88-12.92-43.26-33.14-80.72-50.97-113.77-33.1-61.34-61.69-114.31-32.45-179.06,6.53-14.46,13.54-29.52,20.72-44.94,42.98-92.28,91.68-196.87,78.16-261.19l6.58.27Z"/>
          <path class="cls-7" d="m-181.92-327.91c26.58,80.67-32.65,208.91-94.1,323.7-35.65,66.61-13.36,120.29,14.86,188.25,11.77,28.34,25.11,60.47,35.2,96.59,24.82,88.84,68.4,167.85,126.03,228.5,130.78,137.63,421.67,184.85,708.42,221.43,142.56,18.17,202.84,61.97,222.14,79.95,7.74,7.21,14.02,15.13,20.68,23.51,19.36,24.4,43.45,54.77,121.45,87.76,28.65,12.11,57.4,27.2,85.19,41.79,65.5,34.37,133.22,69.91,209.81,73.26,122.21,5.34,233.58-50.16,351.48-108.93,133.56-66.57,271.66-135.41,451.71-137.94,175.74-2.47,369.48,70.44,460.67,173.39,55.29,62.41,66.29,127.47,76.93,190.4,9.36,55.34,19.04,112.57,59.4,166.44,72.71,97.05,208.99,167.44,373.88,193.07,169.65,26.39,329.31-1.22,416.67-72.05l5.55,2.89c-88.66,71.88-250.59,99.91-422.6,73.16-167.33-26.01-305.62-97.45-379.43-195.97-40.9-54.6-50.65-112.21-60.07-167.92-10.56-62.47-21.49-127.07-76.01-188.61-89.77-101.33-280.52-173.11-453.57-170.67-178.13,2.5-315.54,70.99-448.41,137.22-118.73,59.18-230.88,115.08-355.38,109.63-79.03-3.45-147.79-39.54-214.3-74.44-27.63-14.5-56.2-29.49-84.48-41.45-79.9-33.79-104.55-64.86-124.36-89.83-6.53-8.23-12.69-16-20.13-22.92-38.96-36.3-120.04-65.35-216.91-77.7-288.54-36.8-581.33-84.4-713.9-223.92-58.12-61.16-102.04-140.74-127.02-230.14-10.04-35.94-23.34-67.97-35.08-96.23-28.5-68.62-51-122.83-14.79-190.48,61.2-114.33,120.21-241.97,93.95-321.7l6.5-.05Z"/>
          <path class="cls-7" d="m-173.71-344.12C-130.55-242.94-211.04-87.85-262.86-4.41c-45.3,72.93-27.46,131.12-2.78,211.65,6.44,21.02,13.11,42.76,19.39,66.98,21.62,83.25,71.94,163.28,141.68,225.36,156.78,139.56,486.39,186.52,720.67,209.69,116.18,11.49,192.4,58.22,224.99,98.12,7.04,8.62,12.32,17.86,17.92,27.65,17.03,29.79,36.34,63.55,114.42,98.59,23.23,10.43,46.99,22.7,69.96,34.56,67.63,34.93,137.57,71.03,215.82,73.93,123.97,4.58,238.41-52.34,359.56-112.61,134.64-66.97,287.25-142.88,478.44-144.08,179.42-1.11,374.35,73.16,463.51,176.63,55.54,64.46,63.45,131.35,71.09,196.04,6.61,55.94,13.44,113.79,51.6,168.79,66.47,95.81,196.72,168.01,357.21,197.67,164.81,30.61,325.39,9.46,419.07-55.19l5.3,3.08c-95.08,65.62-257.96,87.1-425.08,56.06-163.07-30.24-295.06-103.39-362.53-200.64-38.66-55.73-45.54-113.96-52.19-170.27-7.58-64.22-15.43-130.62-70.19-194.17-87.76-101.85-279.72-174.96-456.44-173.86-189.23,1.18-341.08,76.72-475.07,143.36-121.97,60.67-237.18,117.98-363.38,113.31-80.69-2.98-151.68-39.64-220.33-75.09-23.91-12.35-46.5-24.01-69.5-34.34-80.28-36.03-100.92-72.11-117.5-101.11-5.51-9.63-10.71-18.73-17.51-27.06-31.63-38.73-105.78-84.1-218.95-95.3-235.73-23.32-567.46-70.65-726.11-211.88-70.43-62.7-121.23-143.45-143.04-227.39-6.27-24.15-12.93-45.86-19.36-66.85-24.88-81.19-42.86-139.84,3.04-213.74,51.57-83.03,131.7-237.25,89.01-337.3l6.4-.31Z"/>
          <path class="cls-7" d="m-165.5-360.32C-100.44-232.08-213.51-55.64-249.71-4.62c-61.44,86.58-45.27,153.93-18.5,265.5l1.66,6.92c19.41,80.95,75.28,159.87,157.32,222.23,158.42,120.42,458.56,160.91,699.72,193.45l33.58,4.54c123.79,16.81,199.88,73.09,227.39,116.18,6.53,10.23,10.97,21.03,15.66,32.47,13.83,33.69,29.51,71.88,107,108.79,17,8.1,33.83,16.72,51.66,25.85,70.68,36.21,143.75,73.65,224.9,76.09,125.68,3.77,243.09-54.54,367.4-116.28,141.99-70.52,302.93-150.45,505.4-150.22,183.03.21,379.16,75.85,466.35,179.87,55.78,66.54,60.56,135.27,65.18,201.73,3.93,56.53,8,114.98,43.85,171.08,60.5,94.67,184.78,168.41,340.99,202.33,159.85,34.74,321.19,19.99,421.05-38.41l5.02,3.26c-101.34,59.27-264.93,74.23-427.1,39.03-158.52-34.42-284.66-109.27-346.07-205.36-36.32-56.83-40.41-115.66-44.37-172.55-4.59-65.98-9.33-134.2-64.32-199.79-85.82-102.38-278.98-176.83-459.31-177.05-200.46-.23-360.63,79.32-501.95,149.51-125.11,62.14-243.28,120.83-371.15,116.99-83.6-2.52-157.75-40.5-229.46-77.23-17.76-9.1-34.54-17.7-51.42-25.73-79.86-38.04-95.91-77.14-110.08-111.63-4.63-11.28-9.01-21.94-15.36-31.89-26.75-41.88-100.81-96.59-221.44-112.99l-33.57-4.54c-242.39-32.7-544.05-73.4-704.37-195.26-82.97-63.07-139.47-142.85-159.08-224.64l-1.66-6.91c-26.94-112.27-43.21-180.04,18.9-267.57,35.99-50.72,148.42-226.08,84.07-352.93l6.31-.51Z"/>
          <path class="cls-7" d="m-157.29-376.49c67.42,117.15-.56,273.42-79.27,371.66-64.58,80.6-76.79,145.28-50.28,266.21,17.26,78.73,80.29,158.59,172.93,219.11,126.15,82.42,321.31,113.64,510.05,143.83,79.29,12.68,161.29,25.8,236.17,42.5,112.24,25.04,200.17,76.44,229.46,134.14,6.1,12.02,9.71,24.55,13.53,37.81,10.78,37.41,22.99,79.81,99.51,118.52,9.23,4.67,18.6,9.51,28.1,14.41,71.74,37.03,153.06,79,239.23,80.97,127.34,2.92,247.64-56.77,375-119.95,149.4-74.12,318.73-158.12,532.61-156.36,186.57,1.54,383.88,78.55,469.18,183.11,56,68.65,57.65,139.25,59.24,207.51,1.33,57.09,2.71,116.12,36.14,173.28,54.78,93.67,173.32,169.15,325.24,207.1,154.83,38.7,316.75,30.35,422.57-21.73l4.7,3.43c-107.4,52.85-271.67,61.29-428.65,22.1-154.15-38.51-274.46-115.12-330.06-210.19-33.86-57.89-35.24-117.29-36.58-174.74-1.58-67.77-3.21-137.84-58.41-205.51-83.96-102.93-278.33-178.73-462.17-180.24-211.82-1.75-380.38,81.88-529.09,155.65-128.15,63.57-249.19,123.63-378.67,120.66-88.7-2.03-171.14-44.59-243.89-82.13-9.48-4.89-18.83-9.72-28.03-14.37-78.98-39.96-91.48-83.32-102.5-121.58-3.78-13.12-7.35-25.51-13.31-37.24-22.35-44.02-93-101.5-224.26-130.79-74.54-16.63-156.36-29.72-235.5-42.38-189.84-30.37-386.14-61.77-513.99-145.3-93.83-61.3-157.66-142.18-175.14-221.88-26.71-121.82-14.37-187.03,50.8-268.35,78.19-97.59,145.83-252.68,79.12-368.58l6.21-.69Z"/>
          <path class="cls-7" d="m-149.08-392.65C-70.93-269.36-130.11-109.14-223.42-5.05c-71.85,80.14-106.47,145.32-83.72,260,15.57,78.47,84.28,157.21,188.53,216.01,123.2,69.5,298.77,95.92,468.56,121.48,97.67,14.7,198.66,29.9,290.28,53.15,116.84,29.65,205.66,87.94,231.81,152.11,5.68,13.95,8.45,28.34,11.37,43.57,8.25,42.96,16.78,87.38,92.08,127.87,68.54,36.86,162.41,87.33,258.11,88.82,128.93,2,252.01-59.01,382.32-123.61,156.87-77.76,334.67-165.9,560.09-162.52,190.02,2.85,388.54,81.22,472.02,186.35,56.23,70.81,54.72,143.31,53.26,213.43-1.2,57.61-2.44,117.18,28.45,175.36,49.3,92.84,162.28,170.13,309.98,212.05,152.01,43.14,310.39,41.2,423.62-5.21l4.35,3.59c-114.9,47.09-275.53,49.08-429.69,5.33-149.86-42.53-264.51-120.96-314.54-215.18-31.27-58.89-30.03-118.82-28.82-176.78,1.45-69.6,2.94-141.57-52.48-211.37-82.17-103.47-277.74-180.62-465.04-183.43-223.34-3.35-400.34,84.4-556.51,161.81-131.08,64.98-254.89,126.36-385.92,124.32-98.36-1.52-193.5-52.7-262.98-90.06-77.78-41.83-86.89-89.24-94.93-131.08-2.9-15.09-5.64-29.35-11.2-43.01-25.13-61.66-114.15-119.98-226.8-148.57-91.08-23.12-191.79-38.28-289.19-52.93-170.75-25.7-347.33-52.27-472.13-122.68-105.73-59.64-175.42-139.5-191.21-219.11-22.96-115.73,11.94-181.44,84.36-262.23,92.65-103.34,151.51-262.23,74.17-384.25l6.13-.83Z"/>
          <path class="cls-7" d="m-140.86-408.8C-47.34-272.13-108.34-107.65-210.28-5.27c-85.63,86-136.24,146-117.16,253.81,13.74,77.61,90.04,157.21,204.12,212.92,120.96,59.07,274.14,79.83,436.32,101.82,112.88,15.3,229.6,31.12,335.13,61.09,119.46,33.92,211.37,100.67,234.15,170.05,5.25,16,7.13,32.35,9.12,49.67,5.35,46.52,10.89,94.63,84.77,136.92,95.71,54.79,177.12,81.68,248.88,82.26,130.44,1.03,256.21-61.29,389.36-127.26,164.4-81.46,350.74-173.78,587.86-168.69,193.43,4.15,393.14,83.88,474.85,189.59,56.45,73.03,51.78,147.5,47.26,219.51-3.65,58.09-7.42,118.16,20.8,177.27,44.02,92.22,151.63,171.39,295.23,217.22,146.86,46.86,305.45,51.02,424.17,11.09l3.97,3.73c-120.45,40.52-281.27,36.33-430.2-11.2-145.68-46.49-254.85-126.82-299.52-220.39-28.55-59.81-24.76-120.23-21.1-178.65,4.49-71.49,9.13-145.42-46.51-217.4-80.43-104.04-277.2-182.52-467.9-186.62-235-5.04-420.52,86.88-584.21,167.98-133.91,66.35-260.39,129.01-392.87,127.97-73.66-.58-156.76-27.93-254.03-83.61-76.34-43.7-81.98-92.76-87.44-140.21-1.98-17.17-3.84-33.39-9-49.11-22.27-67.84-112.3-133.15-229.36-166.38-104.77-29.75-221.09-45.51-333.58-60.77-163.09-22.11-317.13-42.99-439.58-102.79-115.84-56.57-193.33-137.44-207.29-216.33-19.25-108.74,34.2-172,117.93-256.09C-114.96-109.5-54.33-272.56-146.9-407.84l6.04-.95Z"/>
          <path class="cls-7" d="m-132.64-424.94C-38.11-295.16-64.03-126.59-197.14-5.49c-7.86,7.15-15.7,14.17-23.45,21.1-76.47,68.4-142.52,127.48-127.15,226.51,14.31,92.21,122.88,168.86,219.71,209.84,119.47,50.56,261.39,67.12,411.65,84.65,125.48,14.64,255.25,29.78,372.42,66.51,123.74,38.79,216.56,112.58,236.47,187.97,4.79,18.15,5.8,37.41,6.77,56.04,2.6,49.95,5.29,101.6,77.58,145.71,78.83,48.12,166.18,75.7,239.64,75.69,131.85-.02,260.19-63.59,396.06-130.89,172.02-85.2,366.98-181.77,615.97-174.88,196.79,5.45,397.69,86.54,477.69,192.82,56.68,75.31,48.82,151.81,41.21,225.8-6.01,58.51-12.23,119.02,13.18,178.97,38.93,91.83,141.35,172.99,281,222.68,141.77,50.45,300.35,60.57,424.23,27.1l3.58,3.85c-125.65,33.96-286.46,23.7-430.2-27.45-141.64-50.4-245.52-132.73-285.02-225.89-25.71-60.63-19.45-121.47-13.4-180.31,7.55-73.45,15.36-149.41-40.51-223.63-78.74-104.61-276.73-184.43-470.77-189.81-246.82-6.83-440.96,89.33-612.25,174.17-136.61,67.66-265.64,131.58-399.49,131.6-75.39.01-164.72-28.11-245.09-77.16-74.66-45.57-77.41-98.17-80.06-149.05-1.01-19.34-1.96-37.62-6.68-55.49-19.5-73.86-110.54-146.17-231.92-184.22-116.18-36.43-245.41-51.5-370.37-66.08-151.07-17.63-293.75-34.27-414.64-85.44-98.43-41.66-208.8-119.63-223.38-213.53-15.58-100.39,50.99-159.94,128.07-228.88,7.74-6.93,15.58-13.93,23.43-21.08C-70.83-128.36-45.01-295.38-138.61-423.88l5.97-1.06Z"/>
          <path class="cls-7" d="m-124.42-441.07C-17.8-302.11-42.3-123.09-184-5.72c-15.32,12.69-31.33,25.08-46.81,37.05-76.65,59.31-149.05,115.32-137.22,204.36,12.42,93.49,134.52,169.83,235.31,206.78,118.83,43.57,252.16,56.24,393.33,69.66,135.89,12.91,276.41,26.27,403.34,69.75,128.2,43.92,221.93,124.73,238.8,205.88,4.39,20.48,4.4,42.07,4.4,62.95.02,53.14.04,108.1,70.4,153.97,66.38,43.3,154.67,69.78,230.41,69.12,133.15-1.15,263.93-65.92,402.39-134.49,179.72-89,383.42-189.88,644.45-181.09,200.11,6.73,402.19,89.2,480.53,196.06,56.93,77.66,45.85,156.29,35.13,232.33-8.3,58.87-16.88,119.75,5.61,180.43,33.99,91.7,131.4,174.98,267.27,228.5,136.73,53.87,295.16,69.85,423.79,42.76l3.16,3.95c-130.44,27.46-291.06,11.27-429.67-43.33-137.77-54.27-236.55-138.73-271.02-231.72-22.74-61.34-14.11-122.54-5.76-181.72,10.64-75.5,21.65-153.56-34.47-230.12-77.11-105.19-276.3-186.36-473.63-193.01-258.82-8.71-461.68,91.75-640.67,180.39-139.18,68.93-270.64,134.03-405.73,135.2-77.74.67-168.23-26.43-236.14-70.72-72.64-47.37-72.66-103.26-72.68-157.31,0-20.74-.02-42.19-4.35-62.41-16.55-79.63-108.59-158.95-234.48-202.08-125.69-43.06-265.54-56.35-400.79-69.2-141.9-13.49-275.93-26.22-396.08-70.28-102.54-37.6-226.78-115.35-239.45-210.71-12.03-90.5,61.02-147.02,138.36-206.85,15.45-11.96,31.43-24.32,46.71-36.97C-49.11-124.94-24.74-302.31-130.32-439.92l5.9-1.15Z"/>
          <path class="cls-7" d="m-116.19-457.2C4.19-307.05-18.3-121.49-170.87-5.95c-20.89,15.82-43.89,31.13-66.14,45.94-82.58,54.97-160.59,106.89-151.32,189.29,9.56,88.8,132.91,166.31,250.92,203.74,119.06,37.76,251.91,47.27,380.39,56.48,144.41,10.34,293.75,21.03,428.84,71.17,132.14,49.04,226.79,136.88,241.13,223.77,3.82,22.76,2.79,46.58,1.79,69.61-2.44,56.39-4.97,114.71,63.47,162.52,56.35,39.37,143.17,63.92,221.18,62.54,134.31-2.37,267.39-68.27,408.29-138.05,187.53-92.87,400.09-198.12,673.36-187.35,174.21,6.88,396.18,77.53,483.37,199.3,57.06,80.11,42.75,160.93,28.92,239.09-10.47,59.17-21.3,120.36-1.85,181.66,29.14,91.86,121.73,177.42,254.02,234.75,133.78,57.97,287.91,79.12,422.88,58.02l2.74,4.02c-136.82,21.39-293.06-.04-428.65-58.8-134.1-58.11-227.96-144.85-257.51-237.98-19.65-61.94-8.77-123.44,1.76-182.9,14.37-81.18,27.94-157.87-28.31-236.84-85.8-119.85-304.64-189.42-476.5-196.2-271.02-10.68-482.73,94.16-669.51,186.65-141.6,70.12-275.34,136.35-411.54,138.75-80.1,1.41-169.29-23.82-227.21-64.28-70.59-49.31-68.02-108.54-65.54-165.82.99-22.9,2.02-46.58-1.76-69.08-14.09-85.4-107.14-171.73-237.05-219.94-133.62-49.59-282.16-60.23-425.79-70.51-129.13-9.25-262.64-18.8-382.96-56.96-120.14-38.11-245.74-117.16-255.51-207.88-9.44-83.95,72.99-138.82,152.71-191.89,22.19-14.77,45.14-30.05,65.93-45.79C-25.13-123.42-2.8-307.25-122.03-455.97l5.84-1.23Z"/>
          <path class="cls-7" d="m-107.96-473.32C26.35-311.99,5.88-119.9-157.74-6.19c-25.37,17.64-54.8,34.59-83.26,50.99-85.72,49.39-174.36,100.47-167.63,178.06,7.79,89.94,143.63,167.09,266.54,200.71,120.16,32.86,248.22,38.89,372.06,44.72,151.32,7.12,307.8,14.48,449.73,71.15,133.93,53.47,231.77,150.58,243.47,241.65,3.23,25.12,1.14,51.22-.88,76.46-4.98,62.29-9.68,121.12,56.61,170.88,48.97,36.75,130.17,58.19,211.94,55.96,135.3-3.69,270.53-70.66,413.69-141.55,195.47-96.8,417.03-206.51,702.76-193.67,177.13,7.98,401.02,80.09,486.21,202.54,57.49,82.65,39.82,165.84,22.74,246.29-12.6,59.35-25.64,120.72-9.34,182.46,24.37,92.32,112.28,180.32,241.21,241.45,128.91,61.14,282.57,87.67,421.54,72.82l2.32,4.08c-140.84,15.05-296.54-11.84-427.19-73.79-130.64-61.95-219.74-151.14-244.43-244.69-16.45-62.34-3.36-124.01,9.31-183.64,17.75-83.57,34.51-162.51-22.18-244-83.84-120.52-304.62-191.54-479.37-199.39-283.45-12.74-504.15,96.54-698.86,192.97-143.85,71.23-279.72,138.52-416.84,142.26-84.04,2.29-167.68-19.87-218.27-57.85-68.29-51.26-63.3-113.72-58.47-174.12,2.01-25.12,4.08-51.09.89-75.94-11.51-89.63-107.79-185.2-239.6-237.82-140.23-55.99-295.77-63.3-446.18-70.38-124.45-5.85-253.13-11.91-374.47-45.1-125.2-34.24-263.59-113.01-271.56-205.03-6.87-79.25,82.67-130.85,169.27-180.75,28.38-16.35,57.72-33.26,82.94-50.79C-.96-121.91,19.31-312.2-113.74-472.02l5.78-1.3Z"/>
        </g>
      </g>
      <g>
        <rect class="cls-4" x="603.9" y="2510.4" width="1643.06" height="4155.58" transform="translate(-3343.69 5170.32) rotate(-79.7)"/>
        <g class="cls-1">
          <path class="cls-15" d="m3424.26,6014.14l.22-3.13c48.11,7.82,92.4,4.47,124.72-9.43,43.82-18.85,57.17-53.24,33.24-85.57-42.87-57.91-154.95-106.68-263.34-153.85-108.89-47.39-221.5-96.39-265.67-155.06-40.78-54.16-10.37-100.87,19.04-146.04,12.68-19.47,25.79-39.6,33.05-60.09,39.5-111.34-95.09-209.28-234.22-263.8-139.84-54.81-298.66-75.26-414.46-53.35-70.27,13.29-114.17,41.47-156.63,68.72-14.4,9.24-29.28,18.79-44.99,27.63-37.55,21.14-140.69,67.49-287.05,41.42-88.24-15.72-160.05-52.4-229.17-87.82-74.83-38.34-145.51-74.55-236.53-87.3-113.15-15.84-182.03,10.25-254.95,37.86-49.13,18.6-99.93,37.84-165.4,42.74-159.6,11.94-358.66-56.49-485.14-129.61-52.57-30.39-99.28-62.93-144.45-94.39-62.67-43.65-127.47-88.79-208.27-128.3-196.19-95.93-460.26-148.21-689.16-136.44-228.9,11.77-372.46,85.01-374.64,191.15l-7.46-1.15c2.21-107.35,147.39-181.43,378.9-193.34,231.51-11.91,498.59,40.98,697.03,138.01,81.49,39.85,146.57,85.18,209.51,129.02,45.04,31.37,91.61,63.81,143.86,94.02,124.53,72,320.12,139.41,476.34,127.72,64.1-4.8,114.42-23.85,163.07-42.28,70.78-26.8,143.97-54.52,260.6-38.2,93.86,13.1,168.95,51.61,241.56,88.82,68.19,34.94,138.83,71.25,224.81,86.41,142.24,25.33,243.3-20.18,280.15-40.92,15.62-8.79,30.46-18.32,44.82-27.53,42.82-27.48,87.08-55.89,158.55-69.41,118.25-22.36,280.26-1.54,422.83,54.33,141.26,55.36,277.94,154.72,237.91,267.55-7.32,20.64-20.48,40.85-33.21,60.39-29.14,44.75-59.27,91.03-19.25,144.17,43.35,57.57,154.92,106.12,262.81,153.08,109.4,47.61,222.52,96.83,266.21,155.85,24.72,33.38,10.95,68.88-34.25,88.33-33.82,14.55-80.34,18.03-130.98,9.79Z"/>
          <path class="cls-15" d="m3416.58,6026.44l-.57-3.24c40.25,4.74,78.93-.24,108.91-14.02,46.85-21.53,64.03-59.21,42.77-93.77-35.07-56.99-136.41-103-243.69-151.71-101.07-45.88-205.58-93.33-247.48-150.4-39.25-53.77-14.75-100.35,8.94-145.39,10.14-19.28,20.63-39.21,25.71-59.22,22.6-89.01-64.99-182.06-234.3-248.9-141.5-55.86-305.23-78.69-427.31-59.58-75.3,11.79-122.06,37.27-167.29,61.92-12.38,6.74-25.18,13.72-38.24,20.21-44.59,22.35-140.04,55.93-277.4,29.9-84.38-16-153.44-50.8-220.24-84.45-74.44-37.51-144.75-72.94-234.72-85.01-115-15.42-189.46,11.62-268.29,40.26-56.55,20.55-115.03,41.79-190.24,46.18-166.92,9.73-365.62-59.46-488.49-132.34-54.88-32.74-100.97-67.6-145.54-101.32-56.97-43.09-115.88-87.65-192.54-126.91-184.68-94.59-439.41-148.36-664.78-140.32-227.86,8.12-375.18,76.65-384.46,178.85l-7.46-1.24c9.39-103.41,158.42-172.75,388.92-180.96,228.01-8.12,485.74,46.29,672.62,141.99,77.38,39.63,136.57,84.4,193.81,127.7,44.42,33.6,90.34,68.34,144.83,100.84,117.06,69.43,317.14,139.86,479.79,130.37,73.77-4.3,131.73-25.36,187.78-45.72,76.41-27.76,155.42-56.46,273.76-40.59,92.81,12.43,167.54,50.09,239.79,86.5,65.92,33.21,134.08,67.56,216.14,83.12,133.39,25.19,226.77-7.63,270.46-29.52,12.99-6.45,25.76-13.41,38.11-20.14,45.61-24.85,92.78-50.55,169.29-62.53,124.5-19.49,291.34,3.74,435.42,60.62,171.93,67.88,260.9,162.27,237.99,252.52-5.12,20.16-15.64,40.17-25.82,59.52-23.49,44.65-47.77,90.83-9.2,143.67,41.12,56.01,144.66,103.01,244.79,148.47,103.6,47.03,210.73,95.67,246.51,153.83,21.86,35.51,4.25,74.2-43.81,96.29-31.29,14.38-71.94,19.54-114.47,14.54Z"/>
          <path class="cls-15" d="m3408.98,6038.73l-1.54-3.32c33.64,2.03,67.29-4.56,94.73-18.58,48.29-24.65,68.69-65.65,50.77-102.02-27.54-55.88-122.84-101.27-223.73-149.33-93.38-44.48-189.93-90.47-229.63-145.98-37.6-53.2-19.15-99.5-1.3-144.28,8.02-20.12,15.59-39.12,18.5-58.81,12.31-83.43-75.04-170.85-233.66-233.84-143.07-56.81-312.01-82.1-440.9-65.97-81.86,10.24-131.92,32.95-180.34,54.92-9.75,4.42-19.38,8.79-29.12,12.98-75.91,32.68-166.02,38.87-267.73,18.37-80.12-16.13-146.73-49.11-211.14-81-74.13-36.7-144.14-71.37-233.08-82.8-116.88-15.03-196.55,12.99-280.9,42.64-64.13,22.55-130.45,45.87-215.79,49.63-173.72,7.66-376.73-64.65-491.85-135.07-57.24-35.01-102.23-72.16-145.75-108.09-51.57-42.58-104.89-86.61-177.69-125.68-176.24-94.58-415.82-148.41-640.86-143.98-226.4,4.46-377.31,68.19-393.81,166.34l-7.44-1.34c16.71-99.33,169.4-163.84,398.48-168.35,227.77-4.48,470.26,50,648.67,145.75,73.55,39.47,127.15,83.73,178.98,126.52,43.33,35.78,88.14,72.77,144.92,107.51,113.35,69.34,312.92,140.54,483.24,133.04,83.82-3.7,149.59-26.82,213.2-49.18,85.43-30.04,166.11-58.41,286.23-42.96,91.81,11.81,166.21,48.64,238.17,84.27,63.59,31.48,129.35,64.04,207.33,79.74,98.87,19.91,186.6,13.8,260.8-18.14,9.72-4.18,19.32-8.54,29.04-12.95,48.82-22.15,99.3-45.05,182.38-55.44,131.26-16.42,303.21,9.28,448.72,67.06,161.1,63.98,249.83,152.7,237.35,237.32-2.93,19.84-10.88,39.8-18.58,59.1-17.7,44.42-36.01,90.36,1,142.73,38.96,54.49,134.61,100.05,227.11,144.11,97.51,46.44,198.33,94.47,226.46,151.55,18.33,37.2-2.47,79.11-51.77,104.27-28.95,14.78-63.34,21.43-99.47,19.25Z"/>
          <path class="cls-15" d="m3401.49,6050.99l-2.71-3.35c86.12-1.28,161.7-73.61,139.42-133.42-20.33-54.57-109.34-99.31-203.58-146.68-85.9-43.18-174.73-87.82-211.98-141.85-36.1-52.37-23.67-98.18-11.65-142.49,5.51-20.3,10.71-39.47,11.4-59.06,2.78-78.99-81.87-158.69-232.25-218.66-142.33-56.76-321.03-85.22-455.26-72.5-89.41,8.47-145.09,28.8-194.22,46.74-6.47,2.36-12.84,4.69-19.2,6.96-74.06,26.42-156.04,28.61-258.01,6.83-75.83-16.18-139.9-47.33-201.87-77.45-73.89-35.92-143.66-69.86-231.62-80.68-118.79-14.64-203.37,14.33-292.92,45.01-71.84,24.61-146.13,50.06-241.94,53.09-180.59,5.72-383.3-67.42-495.22-137.79-58.9-37.03-102.08-76.1-143.84-113.89-49-44.33-95.29-86.21-164.95-125.41-165.43-93.1-396.25-148.21-617.45-147.42-224.53.8-378.83,59.67-402.67,153.62l-7.42-1.44c24.14-95.13,180.3-154.73,407.55-155.54,223.95-.8,457.67,55.01,625.2,149.29,70.43,39.64,119.14,83.71,166.25,126.33,41.57,37.61,84.56,76.5,142.92,113.2,110.2,69.29,309.51,141.32,486.69,135.71,94.22-2.98,167.93-28.23,239.22-52.65,90.6-31.04,176.17-60.35,298.1-45.33,90.83,11.19,164.99,47.25,236.73,82.12,61.2,29.75,124.48,60.51,198.33,76.27,99.15,21.17,178.96,19.01,251.18-6.76,6.34-2.26,12.71-4.59,19.16-6.94,49.53-18.09,105.68-38.58,196.25-47.16,136.52-12.94,318.16,15.97,462.77,73.64,152.76,60.92,238.76,141.83,235.93,221.98-.69,19.74-5.92,38.98-11.45,59.35-11.94,43.99-24.28,89.47,11.32,141.11,36.58,53.06,124.56,97.28,209.65,140.05,95.34,47.92,185.39,93.18,206.17,148.97,23.2,62.29-53.55,134.84-144.08,136.19Z"/>
          <path class="cls-15" d="m3394.06,6063.19l-4-3.27c70.79-8.39,149.7-82.26,133.42-146.31-13.53-53.24-96.09-97.38-183.49-144.11-78.29-41.86-159.25-85.15-194.27-137.63-34.17-51.2-27.83-96.25-21.71-139.81,2.92-20.79,5.68-40.42,4.03-60.19-6.2-74.36-87.89-146.59-230.02-203.38-143.58-57.37-328.24-88.43-470.46-79.13-98.82,6.46-157.89,22.92-210,37.43l-7.43,2.07c-47.48,13.18-118.56,24.55-248.24-4.71-71.47-16.13-132.92-45.45-192.36-73.8-73.73-35.17-143.37-68.38-230.4-78.67-120.74-14.26-209.96,15.68-304.42,47.38-79.64,26.72-162,54.36-268.58,56.56-178.82,3.7-386.17-67.89-498.58-140.52-60.25-38.93-101.23-79.75-140.85-119.23-44.44-44.28-86.41-86.1-153.3-125.61-155.05-91.58-377.31-147.91-594.55-150.68-222.25-2.84-379.74,51.08-411.02,140.72l-7.39-1.55c31.68-90.79,191.13-145.4,416.11-142.53,220.01,2.81,445.15,59.88,602.23,152.65,67.67,39.97,111.86,84,154.59,126.58,39.42,39.28,80.19,79.9,139.85,118.45,110.68,71.5,314.57,142,490.12,138.37,104.92-2.17,186.68-29.6,265.75-56.13,95.5-32.04,185.7-62.31,309.49-47.69,89.86,10.6,163.92,45.93,235.52,80.08,58.72,28.01,119.44,56.98,189.11,72.7,126.22,28.5,195.43,17.43,241.62,4.61l7.43-2.07c52.51-14.63,112.04-31.2,211.93-37.74,144.43-9.45,331.91,22.07,477.63,80.3,144.41,57.7,227.4,131.06,233.7,206.55,1.66,19.92-1.11,39.63-4.04,60.49-6.08,43.28-12.38,88.04,21.38,138.63,34.42,51.57,114.61,94.45,192.17,135.92,88.48,47.31,172.04,91.99,185.89,146.46,16.54,65.08-64.37,140.23-136.84,148.81Z"/>
          <path class="cls-15" d="m3386.61,6075.32l-5.25-3.04c56.86-15.35,136.57-92.8,127.42-159.25-7.14-51.9-83.1-95.5-163.53-141.65-70.62-40.53-143.64-82.43-176.46-133.31-31.92-49.5-31.56-93.36-31.2-135.76.18-21.76.35-42.32-3.9-62.69-14.32-68.56-94.89-135.34-226.88-188.05-144.57-57.74-335.58-91.43-486.61-85.83-102.54,3.8-165.67,14.59-221.54,25.31-48.94,9.4-111.68,13.93-238.37-16.27-67.05-15.98-125.78-43.46-182.57-70.02-73.68-34.46-143.27-67.03-229.45-76.77-122.71-13.88-216.35,17.02-315.49,49.74-87.53,28.89-178.03,58.75-295.65,60.02-184.82,1.99-392.41-70.55-501.96-143.24-61.39-40.74-99.84-83.18-137.04-124.23-40.17-44.34-78.11-86.22-142.47-126.15-145.11-90.03-359.01-147.52-572.19-153.79-219.55-6.45-380.04,42.47-418.85,127.67l-7.34-1.66c39.32-86.32,201.84-135.89,424.15-129.35,215.98,6.35,432.73,64.61,579.78,155.85,65.15,40.42,105.1,84.52,143.74,127.17,36.99,40.83,75.24,83.04,135.97,123.34,107.85,71.56,312.01,142.99,493.55,141.04,115.89-1.25,205.78-30.91,292.7-59.6,100.16-33.05,194.77-64.28,320.44-50.06,89.05,10.06,163.02,44.68,234.57,78.16,56.14,26.26,114.19,53.42,179.62,69.02,123.62,29.46,184.64,25.09,232.16,15.97,56.26-10.8,119.83-21.66,223.21-25.49,153.15-5.68,346.83,28.48,493.41,87.02,134.11,53.56,215.98,121.4,230.52,191.03,4.29,20.53,4.11,41.15,3.93,62.99-.35,42.18-.72,85.79,30.88,134.79,32.27,50.04,104.62,91.56,174.59,131.71,81.45,46.74,158.39,90.89,165.7,144.02,9.26,67.26-71.81,145.75-129.62,161.36Z"/>
          <path class="cls-15" d="m3379.05,6087.37l-6.29-2.65c41.99-21.51,122.87-101.82,121.32-172.28-1.12-50.64-70.41-93.77-143.77-139.43-62.86-39.13-127.87-79.59-158.44-128.75-29.22-46.99-34.43-88.99-39.46-129.6-2.91-23.49-5.66-45.69-13.04-67.28-27.5-80.43-136.28-138.31-222.7-172.7-145.2-57.79-342.96-94.12-503.81-92.57-111.66,1.08-179.31,6.51-225.77,11.13-52.1,5.17-108.47,2.32-228.35-27.82-62.57-15.73-118.43-41.34-172.46-66.12-73.74-33.82-143.38-65.76-228.83-75.01-124.69-13.5-222.57,18.37-326.19,52.12-95.48,31.09-194.2,63.24-323.09,63.48-168.22.3-380.75-61.08-505.34-145.97-62.35-42.47-98.06-86.44-132.6-128.97-36.13-44.48-70.26-86.5-132.26-126.95-135.57-88.47-341.31-147.07-550.36-156.75-216.45-10.03-379.74,33.84-426.15,114.48l-7.28-1.79c47.03-81.73,212.43-126.19,431.66-116.03,211.85,9.82,420.39,69.22,557.84,158.9,62.8,40.98,98.74,85.23,133.5,128.03,34.34,42.28,69.84,85.99,131.49,127.98,122.66,83.57,331.67,144.01,496.99,143.71,127.09-.23,225.18-32.17,320.03-63.06,104.62-34.07,203.43-66.25,331.03-52.44,88.25,9.58,162.33,43.52,233.95,76.37,53.43,24.5,108.69,49.84,169.8,65.2,117.45,29.53,172.33,32.35,222.83,27.34,46.72-4.64,114.74-10.1,226.93-11.19,162.88-1.57,363.14,35.23,510.21,93.76,87.82,34.95,198.36,93.76,226.3,175.49,7.44,21.76,10.2,44.03,13.12,67.6,5.01,40.43,10.19,82.24,39.18,128.85,30.1,48.4,94.53,88.5,156.83,127.28,74.33,46.26,144.53,89.96,145.68,141.8,1.46,66.03-72.76,148.36-122.49,173.84Z"/>
          <path class="cls-15" d="m3371.31,6099.37l-6.97-2.17c10.99-10.58,107.63-105.7,115.04-185.34,4.61-49.51-57.98-92.31-124.26-137.63-55.01-37.62-111.9-76.51-140.2-123.78-25.82-43.14-35.73-82.18-45.31-119.94-6.73-26.51-13.08-51.55-24.59-75.37-27.91-57.79-103.04-112.2-217.29-157.35-147.52-58.3-347.64-96.36-522.25-99.31-107.83-1.82-182.11-3.02-230.21-3.09-46.39-.06-92.86-6.16-218.13-39.33-58-15.36-110.83-39.1-161.93-62.06-73.96-33.23-143.83-64.62-228.63-73.4-126.7-13.12-228.63,19.73-336.55,54.5-103.48,33.34-210.49,67.82-350.86,66.92-173.13-1.11-387.08-63.64-508.72-148.69-63.16-44.17-95.96-89.58-127.68-133.5-32.28-44.69-62.77-86.9-122.53-127.97-126.46-86.9-324.24-146.56-529.07-159.6-212.98-13.56-378.87,25.21-432.93,101.18l-7.2-1.91c54.8-77.01,222.88-116.32,438.64-102.59,207.65,13.21,408.18,73.72,536.41,161.84,60.55,41.6,92.67,86.07,123.73,129.08,31.52,43.65,64.12,88.78,126.53,132.42,119.75,83.73,330.2,145.28,500.41,146.38,138.52.88,244.86-33.38,347.7-66.51,108.9-35.09,211.76-68.23,341.29-54.82,87.64,9.07,161.91,42.45,233.75,74.73,50.57,22.72,102.85,46.21,159.57,61.23,123.37,32.66,168.76,38.67,213.71,38.74,48.21.07,122.54,1.27,230.45,3.1,176.55,2.99,378.96,41.49,528.23,100.49,116.1,45.89,192.47,101.19,220.84,159.94,11.59,24,17.96,49.12,24.72,75.72,9.55,37.63,19.43,76.54,45.09,119.41,27.89,46.59,84.3,85.17,138.85,122.47,67.16,45.92,130.58,89.29,125.87,139.95-7.46,80.13-104.49,175.64-115.53,186.27Z"/>
          <path class="cls-15" d="m3363.41,6111.37l-7.33-1.69c5.91-12.35,17.75-29.93,31.46-50.28,28.28-41.97,67-99.46,77.16-148.12,10.15-48.6-45.78-91.27-104.98-136.45-47.09-35.93-95.79-73.08-121.71-118.19-21.23-36.94-34.03-71.02-46.41-103.98-11.97-31.88-23.29-61.99-40.86-89.75-87.92-138.94-451.7-235.24-752.61-248.08-112.62-4.81-184.68-11.82-234.88-17.38-42.77-4.75-80.5-15.28-181.32-43.42l-26.36-7.36c-53.33-14.86-102.93-36.7-150.9-57.81-74.34-32.73-144.56-63.64-228.93-71.98-128.7-12.72-234.54,21.1-346.6,56.9-111.54,35.63-226.87,72.48-378.93,70.36-177.91-2.48-393.27-66.16-512.1-151.41-63.88-45.82-93.63-92.62-122.4-137.87-28.58-44.95-55.58-87.41-113.16-129.14-117.73-85.34-307.76-146.04-508.3-162.36-205.98-16.77-378.38,17.69-439.2,87.79l-7.1-2.04c61.67-71.09,236.39-106.05,445.1-89.05,203.37,16.55,396.07,78.12,515.5,164.68,58.36,42.3,86.8,87.03,114.3,130.29,28.59,44.96,58.15,91.45,121.23,136.7,116.98,83.92,328.87,146.61,503.84,149.05,150.14,2.1,264.79-34.53,375.67-69.95,113.02-36.11,219.78-70.21,351.25-57.22,87.16,8.6,161.82,41.48,234.04,73.27,47.5,20.91,96.61,42.53,148.85,57.09l26.37,7.36c99.8,27.86,137.15,38.27,178.45,42.86,49.93,5.54,121.62,12.51,233.74,17.3,149.78,6.39,314.11,33.42,450.85,74.14,111.56,33.22,256.02,90.98,310.74,177.45,17.7,27.97,29.05,58.17,41.06,90.15,12.35,32.88,25.13,66.89,46.27,103.67,25.59,44.53,73.91,81.4,120.64,117.05,59.99,45.77,116.66,89.01,106.28,138.71-10.21,48.92-49.03,106.54-77.37,148.62-13.68,20.3-25.49,37.84-31.35,50.09Z"/>
          <path class="cls-15" d="m3347.94,6122.15c2.38-23.9,23.78-60.81,46.42-99.9,21.71-37.45,44.15-76.18,55.66-111.54,15.64-48.03-31.44-88.9-85.95-136.23-39.13-33.97-79.59-69.1-103-111.65-14.39-26.15-26.26-51.04-37.74-75.11-20.11-42.17-39.11-81.99-66.87-117.03-107.98-136.26-472.62-219.67-765.71-239.51-95.7-6.48-176.35-17.18-239.69-31.8-20.65-4.77-39.36-11.18-65.25-20.05-28.85-9.88-68.35-23.43-131.83-42.03-48.54-14.22-94.64-34.11-139.22-53.33-71.66-30.9-145.75-62.86-229.87-70.78-130.7-12.31-240.32,22.47-356.38,59.3-119.64,37.96-243.35,77.22-407.27,73.78-182.54-3.83-399.32-68.65-515.48-154.12-64.5-47.46-91.11-95.58-116.84-142.12-25.01-45.25-48.65-87.98-104.07-130.43-109.4-83.8-291.83-145.51-488.04-165.06-201.9-20.12-376.56,9.06-444.97,74.35l-6.97-2.18c69.39-66.23,246.44-95.84,451.06-75.44,198.99,19.83,384.07,82.44,495.07,167.46,56.18,43.03,81.08,88.06,105.15,131.6,25.56,46.23,51.99,94.03,115.66,140.88,114.35,84.14,327.68,147.94,507.26,151.72,161.95,3.4,284.96-35.63,403.92-73.38,117-37.13,227.52-72.2,360.94-59.63,86.9,8.19,162.17,40.65,234.97,72.05,44.18,19.05,89.86,38.76,137.48,52.71,63.84,18.71,103.55,32.31,132.54,42.25,26.37,9.04,43.78,15.01,63.56,19.57,61.55,14.2,143.44,25.05,236.87,31.38,296.06,20.04,664.59,104.55,774.1,242.75,27.96,35.29,47.02,75.24,67.19,117.53,11.47,24.04,23.33,48.91,37.68,75,23.15,42.07,63.34,76.96,102.2,110.7,55.21,47.94,102.9,89.34,86.92,138.4-11.56,35.5-34.04,74.29-55.78,111.81-22.57,38.95-43.89,75.74-46.25,99.35l-7.46-1.25Z"/>
          <path class="cls-15" d="m3339.87,6134.58c-6.33-36.47,25.32-93.41,55.93-148.48,14.21-25.56,28.9-51.99,39.56-75.96,21.32-47.94-19.65-89.45-67.1-137.51-29.74-30.12-63.44-64.27-84.12-103.61l-6.67-12.72c-35.87-68.44-66.85-127.55-115.26-177.82-156.16-162.19-635.6-217.77-778.83-230.95-136.04-12.51-211.54-34.39-244.44-46.32-13.19-4.78-24.9-10.31-38.46-16.72-28.12-13.29-66.63-31.48-148.09-56.57-43.58-13.42-85.84-31.29-126.71-48.56-72.51-30.65-147.48-62.34-231.64-69.88-132.69-11.88-245.97,23.87-365.89,61.72-127.79,40.33-259.92,82.04-435.89,77.19-187.03-5.16-405.25-71.12-518.86-156.84-65.05-49.08-88.44-98.5-111.07-146.3-20.62-43.56-41.94-88.6-95.19-131.8-101.44-82.29-276.49-144.98-468.29-167.72-200.56-23.77-373.09-.45-450.25,60.87l-6.81-2.31c78.29-62.21,253.21-85.88,456.51-61.79,194.58,23.05,372.19,86.68,475.13,170.19,53.98,43.8,75.45,89.14,96.2,133,22.47,47.47,45.7,96.55,109.88,144.97,111.84,84.39,326.62,149.31,510.68,154.39,173.93,4.8,305.35-36.68,432.44-76.8,120.86-38.15,235.01-74.18,370.36-62.05,86.92,7.79,163.08,39.98,236.73,71.11,40.54,17.14,82.46,34.86,125.28,48.04,82.49,25.4,121.51,43.84,150,57.3,13.26,6.26,24.72,11.68,37.28,16.23,32.13,11.64,106.02,33.02,240.08,45.36,144.49,13.29,628.24,69.44,786.58,233.88,48.74,50.62,79.81,109.89,115.78,178.52l6.67,12.71c20.48,38.98,52.55,71.46,83.56,102.88,48.02,48.64,89.49,90.65,67.74,139.55-10.68,24.03-25.39,50.49-39.62,76.07-30.49,54.86-62.03,111.59-55.78,147.59l-7.44-.88Z"/>
          <path class="cls-15" d="m3331.83,6146.97c-19.82-52.17,27.32-132.35,68.92-203.09,6.92-11.77,13.68-23.26,19.94-34.31,27.57-48.63-7.62-91.54-48.36-141.23-22.29-27.19-47.56-58.01-65.11-93.13-40.79-81.58-85.03-141.61-139.22-188.93-114.6-100.06-381.05-174.89-791.98-222.4-150.94-17.46-224.38-48.38-248.95-60.86-10.4-5.28-19.5-11.19-29.14-17.45-26.61-17.26-59.72-38.74-147.11-67.02-38.37-12.41-76.35-28.16-113.09-43.4-73.71-30.57-149.94-62.17-234.54-69.36-134.66-11.44-251.47,25.28-375.15,64.15-135.98,42.74-276.58,86.93-464.74,80.59-191.44-6.45-411.07-73.56-522.25-159.56-65.55-50.7-85.67-101.4-105.13-150.43-17.42-43.88-35.43-89.25-86.47-133.22-95.23-82.04-258.87-144.14-449.04-170.37-195.86-27.02-370.23-8.87-455.06,47.37l-6.62-2.45c86.08-57.07,262.9-75.51,461.47-48.11,192.93,26.62,359.01,89.64,455.66,172.9,51.74,44.57,69.87,90.25,87.41,134.42,19.33,48.69,39.31,99.03,103.96,149.03,109.45,84.65,325.66,150.71,514.11,157.07,186.08,6.28,325.94-37.69,461.2-80.2,124.59-39.16,242.26-76.15,379.53-64.49,87.35,7.41,164.76,39.52,239.62,70.57,36.47,15.12,74.18,30.76,111.96,42.99,89.07,28.82,122.83,50.72,149.97,68.33,9.85,6.39,18.35,11.9,28.27,16.95,23.86,12.12,95.36,42.18,243.53,59.31,414.02,47.87,682.85,123.58,799.02,225.01,54.59,47.66,99.1,108.02,140.05,189.95,17.43,34.86,42.59,65.55,64.78,92.62,41.19,50.24,76.77,93.63,48.71,143.13-6.26,11.05-13.03,22.56-19.95,34.33-41.44,70.47-88.41,150.35-68.84,201.87l-7.36-.57Z"/>
          <path class="cls-15" d="m3323.82,6159.34c-35.27-65.15,21.77-163.11,82.22-250.34,35.08-50.62,6.47-94.22-29.74-149.42-15.1-23.02-32.22-49.12-46-78.18-33.89-71.5-88-136.27-156.48-187.32-155.41-115.86-482.96-169.17-805.16-213.86-160.18-22.2-230.44-60.1-253.21-75.36-9.13-6.12-16.69-12.72-24.69-19.7-23.28-20.33-52.27-45.63-141.52-75.97-32.78-11.14-65.88-24.64-97.89-37.68-75.41-30.74-153.39-62.53-238.99-69.4-136.6-10.96-256.85,26.71-384.15,66.6-144.21,45.18-293.33,91.9-493.85,83.97-195.71-7.74-416.78-75.99-525.64-162.28-66-52.32-82.82-104.28-99.09-154.54-14.31-44.2-29.1-89.91-77.87-134.66-87.85-80.62-244.67-143.7-430.27-173.03-190.95-30.19-366.98-17.2-459.4,33.89l-6.39-2.59c93.8-51.85,272.33-65.05,465.94-34.44,188.34,29.76,347.49,93.78,436.66,175.62,49.42,45.35,64.31,91.37,78.71,135.86,16.15,49.9,32.85,101.49,97.93,153.08,107.15,84.94,324.81,152.12,517.53,159.74,198.38,7.85,346.75-38.63,490.23-83.59,128.2-40.17,249.3-78.11,388.45-66.94,88.33,7.09,167.51,39.36,244.08,70.58,31.81,12.97,64.71,26.38,97.06,37.38,91.43,31.08,121.08,56.97,144.91,77.77,7.85,6.85,15.27,13.33,24.04,19.21,45.97,30.81,138.38,58.2,247.22,73.3,324.2,44.96,653.9,98.69,811.44,216.13,69.06,51.48,123.59,116.72,157.69,188.67,13.71,28.93,30.78,54.94,45.84,77.9,36.57,55.74,65.45,99.77,29.83,151.18-60.21,86.88-117.06,184.37-82.2,248.76l-7.24-.32Z"/>
          <path class="cls-15" d="m3315.8,6171.69c-55.2-82.25,23.67-200.24,75.59-263.24,45.39-55.07,21.43-101.99-11.71-166.92-8.65-16.95-17.6-34.48-26.31-53.94-29.93-66.91-91.63-132.86-173.71-185.71-184.52-118.81-555.22-174.06-817.99-205.27-130.31-15.48-218.54-56.57-257.66-89.86-8.45-7.19-14.99-14.78-21.91-22.81-21.07-24.45-44.95-52.17-134.44-84.13-26.63-9.51-53.97-20.51-80.41-31.14-77.83-31.3-158.31-63.66-245.74-70.26-138.5-10.45-262.08,28.17-392.9,69.06-145.39,45.44-310.18,96.94-523.21,87.34-199.91-9.02-422.4-78.4-529.02-164.99-66.43-53.95-79.92-107.18-92.96-158.67-11.28-44.53-22.95-90.57-69.33-136.08-80.8-79.29-231.04-143.47-412.01-175.74-185.85-33.25-363.36-25.41-463.26,20.46l-6.13-2.72c101.39-46.55,281.44-54.53,469.9-20.81,183.88,32.86,336.13,97.88,418.15,178.38,47,46.12,58.74,92.47,70.1,137.28,12.95,51.11,26.34,103.96,91.83,157.14,104.95,85.24,324.04,153.54,520.95,162.41,210.84,9.5,374.82-41.75,519.5-86.96,131.71-41.16,256.12-80.05,397.12-69.4,90.16,6.8,171.85,39.66,250.85,71.43,27.52,11.07,53.52,21.52,79.87,30.94,92.01,32.87,117.54,62.49,138.05,86.29,6.81,7.91,13.25,15.38,21.42,22.33,37.97,32.31,123.8,72.22,250.73,87.3,264.39,31.41,637.48,87.07,824.21,207.3,82.9,53.38,145.18,119.92,175.36,187.39,8.68,19.41,17.62,36.92,26.26,53.84,33.42,65.46,57.56,112.75,11.58,168.56-51.67,62.7-130.19,180.01-75.6,261.35l-7.12-.11Z"/>
          <path class="cls-15" d="m3307.78,6184.02c-81.5-104.81,32.18-237.85,68.96-276.13,62.42-64.96,39.69-119.01,2.03-208.56l-2.33-5.55c-27.3-64.97-95.1-130.35-190.91-184.1-185.01-103.79-522.4-152.31-793.5-191.3l-37.75-5.44c-139.16-20.1-227.91-68.72-261.6-104.25-8-8.44-13.7-17.21-19.73-26.49-17.78-27.36-37.93-58.37-126.89-91.78-19.51-7.33-38.88-15.07-59.39-23.26-81.32-32.48-165.39-66.06-256.02-72.47-140.35-9.91-267.15,29.65-401.39,71.53-153.34,47.84-327.14,102.05-552.83,90.7-204.04-10.26-427.94-80.79-532.41-167.71-66.83-55.6-76.98-110.12-86.78-162.83-8.34-44.84-16.97-91.21-60.85-137.47-74.06-78.06-217.76-143.13-394.25-178.52-180.61-36.24-359.42-33.5-466.64,7.09l-5.82-2.85c108.81-41.2,290.11-43.98,473.34-7.25,179.11,35.91,324.95,101.96,400.13,181.2,44.46,46.87,53.14,93.53,61.54,138.66,9.73,52.33,19.8,106.45,85.68,161.26,102.83,85.55,323.35,154.97,524.37,165.09,223.46,11.24,396.43-42.72,549.04-90.33,135.1-42.15,262.72-81.96,405.52-71.88,93.37,6.6,178.68,40.67,261.18,73.62,20.44,8.16,39.74,15.87,59.11,23.15,91.68,34.43,112.31,66.18,130.51,94.19,5.96,9.16,11.58,17.82,19.35,26.02,32.74,34.54,119.13,81.81,254.74,101.4l37.74,5.44c272.48,39.18,611.58,87.95,798.81,192.98,96.9,54.36,165.46,120.45,193.05,186.1l2.33,5.55c37.89,90.11,60.77,144.51-2.33,210.17-36.57,38.05-149.62,170.28-69,273.96l-6.99.05Z"/>
          <path class="cls-15" d="m3299.76,6196.33c-83.36-96.19-18.52-215.8,62.34-289,66.34-60.06,75.43-110.45,37.41-207.37-24.75-63.1-100.6-129.62-208.1-182.5-146.39-72.02-366.11-107.43-578.61-141.67-89.27-14.38-181.59-29.26-266.22-46.58-126.87-25.96-228.47-71.38-265.17-118.54-7.64-9.82-12.54-19.91-17.73-30.6-14.63-30.12-31.22-64.27-119.22-99.04-10.62-4.2-21.4-8.53-32.33-12.93-82.56-33.19-176.14-70.8-272.33-77.11-142.14-9.33-272.06,31.15-409.6,74-161.35,50.27-344.21,107.24-582.74,94.05-208.07-11.5-433.4-83.18-535.8-170.42-67.23-57.28-74.01-113.1-80.56-167.07-5.48-45.14-11.15-91.81-52.41-138.78-67.62-76.96-205.04-143.08-377.03-181.42-175.29-39.09-355.19-41.43-469.51-6.16l-5.48-2.97c116.01-35.8,298.53-33.4,476.25,6.2,174.53,38.9,313.99,106.01,382.62,184.13,41.79,47.57,47.5,94.53,53.01,139.95,6.5,53.58,13.23,108.99,79.5,165.45,100.8,85.88,322.76,156.44,527.79,167.77,236.24,13.06,418.26-43.65,578.87-93.69,138.39-43.12,269.11-83.84,413.64-74.36,99.01,6.49,193.89,44.64,277.6,78.29,10.91,4.39,21.66,8.71,32.26,12.89,90.84,35.9,107.8,70.82,122.76,101.63,5.13,10.56,9.98,20.54,17.44,30.13,28,35.98,110.77,85.25,259.13,115.61,84.25,17.24,176.37,32.08,265.47,46.44,213.74,34.45,434.74,70.06,583.1,143.04,108.88,53.57,185.7,120.93,210.75,184.81,38.3,97.64,29.11,148.43-37.83,209.03-80.32,72.72-144.86,191.42-62.39,286.59l-6.87.2Z"/>
          <path class="cls-15" d="m3291.74,6208.64c-95.74-101.63-41-224.84,55.73-301.86,74.48-59.3,108.51-108.84,75.12-200.62-22.85-62.8-104.95-128.74-225.27-180.91-142.2-61.66-339.75-92.2-530.79-121.73-109.89-16.99-223.53-34.56-327.28-57.96-132.31-29.85-235.4-80.76-269.04-132.86-7.31-11.32-11.4-22.83-15.73-35.02-12.21-34.36-24.83-69.9-111.59-106.02-78.98-32.87-187.14-77.9-293.92-84.35-143.85-8.69-276.78,32.68-417.51,76.49-169.41,52.73-361.43,112.5-612.94,97.4-212.01-12.73-438.78-85.54-539.19-173.13-67.63-59-71.03-116.15-74.31-171.41-2.7-45.41-5.49-92.37-43.99-139.99-61.45-76-192.8-143.24-360.37-184.48-172.46-42.44-348.86-49.64-471.83-19.25l-5.1-3.07c124.78-30.83,303.69-23.54,478.58,19.49,170.02,41.84,303.31,110.07,365.67,187.21,38.98,48.21,41.79,95.45,44.5,141.14,3.26,54.86,6.63,111.59,73.29,169.74,98.83,86.21,322.24,157.89,531.2,170.44,249.18,14.96,440.34-44.54,608.99-97.04,141.56-44.07,275.28-85.69,421.46-76.85,109.75,6.62,219.38,52.27,299.44,85.59,89.63,37.31,103.1,75.24,114.99,108.71,4.29,12.07,8.34,23.48,15.5,34.57,32.32,50.06,135.64,101.01,263.21,129.79,103.14,23.27,216.46,40.79,326.06,57.73,192.13,29.71,390.82,60.42,534.86,122.88,122.03,52.91,205.31,119.8,228.48,183.51,33.69,92.62-.6,142.57-75.67,202.34-96.03,76.47-150.52,198.64-55.77,299.23l-6.77.32Z"/>
          <path class="cls-15" d="m3283.71,6220.93c-113.81-113.04-57.34-239.51,49.12-314.71,89.43-63.17,141.65-107.73,112.83-193.89-20.75-62.02-111.37-129.06-242.43-179.33-138.96-53.3-311.17-78.14-493.48-104.44-126.89-18.3-258.11-37.23-377.84-66.7-135.53-33.36-242.65-91.12-272.9-147.15-6.97-12.92-10.21-25.93-13.65-39.71-9.22-37.02-18.76-75.3-104.07-112.75-110.52-48.53-203.15-74.25-283.18-78.66-145.47-8.01-281.29,34.25-425.1,78.98-177.55,55.23-378.79,117.83-643.46,100.74-215.9-13.94-444.1-87.9-542.58-175.85-68.04-60.76-68.04-119.29-68.04-175.88,0-45.65,0-92.86-35.6-141.08-55.53-75.22-181.02-143.65-344.29-187.75-166.99-45.09-344.04-57.12-473.59-32.15l-4.69-3.16c131.43-25.34,310.98-13.16,480.32,32.57,165.64,44.74,292.95,114.17,349.3,190.49,36.02,48.79,36.02,96.27,36.02,142.19,0,56.19,0,114.29,67.06,174.17,96.93,86.56,321.77,159.37,534.62,173.12,262.3,16.94,462.66-45.39,639.44-100.38,144.62-44.99,281.21-87.48,428.96-79.35,82.15,4.52,176.69,30.69,289.01,80.01,88.15,38.7,97.88,77.75,107.28,115.5,3.4,13.66,6.62,26.57,13.47,39.26,29.57,54.78,134.49,111.3,267.31,143.99,118.87,29.26,249.63,48.12,376.09,66.37,183.33,26.45,356.5,51.43,497.18,105.39,133.08,51.04,225.12,119.15,246.21,182.2,29.07,86.9-26.07,133.89-113.52,195.65-105.64,74.62-161.8,199.99-49.15,311.88l-6.67.42Z"/>
          <path class="cls-15" d="m3275.68,6233.22c-114.46-107.66-97.37-239.29,42.53-327.54,8.26-5.21,16.51-10.32,24.66-15.36,80.45-49.78,149.93-92.77,125.87-171.79-22.41-73.58-148.79-140.07-259.6-177.77-136.71-46.5-296.07-67.4-464.78-89.53-140.89-18.48-286.6-37.59-419.78-73.05-140.64-37.45-249.27-100.81-276.74-161.42-6.61-14.59-9.08-29.85-11.47-44.61-6.4-39.57-13.01-80.49-96.67-119.3-91.24-42.33-190.53-68.92-272.42-72.97-146.97-7.26-285.58,35.84-432.31,81.47-185.78,57.77-396.34,123.25-674.36,104.07-219.73-15.15-449.35-90.25-545.97-178.56-68.46-62.57-65.04-122.53-61.75-180.51,2.61-45.86,5.3-93.27-27.23-142-49.83-74.63-169.67-144.35-328.81-191.28-161.55-47.64-339.04-64.38-474.77-44.79l-4.26-3.23c137.68-19.88,317.65-2.9,481.45,45.39,161.41,47.6,282.97,118.32,333.51,194.03,32.9,49.28,30.19,96.96,27.57,143.07-3.27,57.56-6.66,117.09,60.81,178.76,95.1,86.92,321.38,160.85,538.04,175.8,275.6,19.01,485.27-46.19,670.26-103.72,147.54-45.88,286.89-89.21,436.08-81.85,84.03,4.15,185.57,31.27,278.59,74.43,86.42,40.09,93.16,81.77,99.67,122.07,2.48,15.33,4.82,29.8,11.33,44.17,26.91,59.38,133.45,121.48,271.41,158.21,132.05,35.16,277.15,54.19,417.47,72.59,169.62,22.25,329.83,43.25,468.16,90.31,112.64,38.31,241.12,105.95,263.94,180.87,24.39,80.11-45.64,123.44-126.73,173.61-8.15,5.04-16.39,10.14-24.64,15.35-138.75,87.53-155.83,217.95-42.51,324.54l-6.58.51Z"/>
          <path class="cls-15" d="m3267.64,6245.5c-128.57-115.57-113.79-255.54,35.94-340.37,16.19-9.17,33.17-18.07,49.59-26.67,81.29-42.59,158.07-82.81,138.65-153.75-20.39-74.49-161.84-141.48-276.77-176.21-135.51-40.95-285.01-58.31-443.3-76.68-152.38-17.69-309.94-35.98-454.47-77.31-145.97-41.74-256.11-110.7-280.59-175.69-6.32-16.41-7.84-33.45-9.31-49.93-3.74-41.95-7.61-85.33-89.25-125.43-77.02-37.84-177.29-63.61-261.67-67.27-148.34-6.44-289.58,37.48-439.12,83.97-194.1,60.34-414.09,128.74-705.66,107.41-223.52-16.35-454.55-92.59-549.35-181.27-68.9-64.45-62.05-125.9-55.42-185.33,5.13-46.01,10.44-93.59-18.88-142.74-44.31-74.26-158.72-145.38-313.92-195.12-156.18-50.06-333.89-71.42-475.38-57.13l-3.8-3.29c143.47-14.49,323.65,7.16,481.97,57.9,157.37,50.44,273.39,122.56,318.32,197.87,29.64,49.68,24.3,97.51,19.15,143.77-6.58,59.01-13.38,120.03,54.53,183.55,93.32,87.29,321.03,162.35,541.46,178.48,289.11,21.15,508.2-46.96,701.5-107.06,150.31-46.73,292.29-90.87,442.79-84.34,86.61,3.76,189.37,30.14,268.17,68.85,84.29,41.4,88.22,85.52,92.03,128.19,1.46,16.37,2.97,33.31,9.21,49.51,24.03,63.77,132.17,131.46,275.52,172.45,143.11,40.92,299.94,59.13,451.59,76.73,159.11,18.47,309.4,35.92,446.42,77.33,116.93,35.34,260.86,103.56,281.66,179.54,19.74,72.1-57.72,112.69-139.74,155.65-16.39,8.58-33.34,17.46-49.48,26.61-148.44,84.1-163.19,222.76-35.87,337.21l-6.5.58Z"/>
          <path class="cls-15" d="m3259.6,6257.78c-144.69-125.16-132.62-270.4,29.36-353.19,22.18-11.34,46.75-22.15,70.51-32.62,88.2-38.84,171.52-75.52,155.42-141.07-16.87-70.62-159.8-138.61-293.96-174.67-135.35-36.38-284.11-51.21-427.97-65.56-161.7-16.12-328.9-32.81-483-79.83-150.73-46-262.38-120.56-284.45-189.94-5.85-18.18-6.37-36.92-6.87-55.05-1.23-44.38-2.49-90.27-82.13-131.79-65.57-34.19-164.07-58.35-250.92-61.57-149.54-5.54-293.27,39.14-445.44,86.45-202.54,62.96-432.09,134.33-737.45,110.75-194.67-15.04-447.04-83.05-552.74-183.98-69.21-66.38-58.92-129.39-48.97-190.33,7.53-46.13,15.32-93.83-10.66-143.3-38.92-74.12-148.11-146.76-299.59-199.32-153.17-53.14-326.46-78.33-475.43-69.12l-3.34-3.33c151.01-9.34,326.67,16.19,481.91,70.05,153.55,53.27,264.24,126.92,303.7,202.05,26.24,49.98,18.42,97.92,10.85,144.28-10.33,63.29-20.09,123.07,48.13,188.52,104.03,99.34,352.84,166.33,544.88,181.16,302.85,23.38,531.49-47.7,733.22-110.41,152.92-47.54,297.37-92.45,449.02-86.83,89.19,3.3,190.37,28.14,257.76,63.27,82.14,42.82,83.42,89.43,84.67,134.51.5,18.02,1.01,36.66,6.8,54.63,21.68,68.19,131.45,141.47,279.63,186.69,152.42,46.52,318.73,63.1,479.56,79.15,144.58,14.42,294.07,29.33,430.86,66.09,136.59,36.71,282.12,106.04,299.36,178.19,16.4,66.79-71.64,105.56-156.78,143.05-23.7,10.44-48.21,21.23-70.29,32.51-160.51,82.04-172.53,225.92-29.22,349.89l-6.42.65Z"/>
          <path class="cls-15" d="m3251.56,6270.05c-161.01-134.76-151.64-285.26,22.78-366,27.05-12.52,58.66-24.29,89.24-35.66,92.09-34.26,187.32-69.69,174.39-131.31-14.99-71.43-171.8-139.82-311.16-173.14-136.24-32.57-279.4-44.39-417.86-55.82-169.17-13.96-344.1-28.4-506.28-80.97-153.03-49.6-268.89-131.65-288.3-204.18-5.35-20.01-4.86-40.49-4.37-60.31,1.19-48.9,2.31-95.08-75.06-138.01-57.15-31.71-149.17-53.12-240.16-55.87-150.56-4.55-296.6,40.85-451.22,88.92-211.11,65.63-450.39,140.02-769.79,114.12-198-16.07-452.61-85.34-556.14-186.7-69.87-68.41-56-133.11-42.59-195.67,9.89-46.15,20.13-93.88-2.36-143.51-33.62-74.22-137.78-148.53-285.77-203.9-147.98-55.37-321.11-84.79-474.98-80.73l-2.87-3.35c155.94-4.11,331.38,25.7,481.34,81.81,149.96,56.11,255.51,131.42,289.59,206.63,22.71,50.12,12.43,98.07,2.48,144.45-13.93,64.99-27.09,126.38,41.8,193.83,101.9,99.76,352.96,168,548.29,183.84,316.85,25.69,555.2-48.4,765.49-113.78,155.35-48.3,302.09-93.91,454.68-89.3,93.52,2.83,188.3,24.93,247.35,57.7,79.71,44.23,78.52,93.26,77.37,140.67-.48,19.72-.97,40.1,4.33,59.9,19.1,71.38,133.12,152.13,283.73,200.94,160.23,51.93,334.12,66.28,502.27,80.17,139.13,11.48,282.99,23.36,420.57,56.25,141.95,33.94,301.72,103.75,317.06,176.82,13.2,62.94-82.99,98.73-176.03,133.34-30.49,11.34-62.01,23.07-88.9,35.52-172.79,79.98-182.07,229.08-22.57,362.57l-6.35.71Z"/>
        </g>
      </g>
    </g>
  </g>
</svg>